<svg width="18" height="18" viewBox="0 0 18 18" fill="currentColor" xmlns="http://www.w3.org/2000/svg">
<path fillRule="evenodd" clipRule="evenodd" d="M4.60001 7.89961L4.63334 7.89961C5.02485 7.89963 5.37134 7.89965 5.65849 7.87619C5.96428 7.8512 6.28113 7.79519 6.58959 7.63803C7.04117 7.40793 7.40833 7.04078 7.63842 6.58919C7.79559 6.28074 7.8516 5.96388 7.87658 5.6581C7.90005 5.37095 7.90003 5.02447 7.90001 4.63298V4.63297V4.63296V4.63294L7.90001 4.59961V3.39961L7.90001 3.36628C7.90003 2.97477 7.90005 2.62828 7.87658 2.34113C7.8516 2.03534 7.79559 1.71849 7.63843 1.41004C7.40833 0.958447 7.04118 0.591293 6.58959 0.361197C6.28113 0.204031 5.96428 0.148022 5.6585 0.123038C5.37136 0.0995776 5.02489 0.099593 4.63341 0.0996103H4.63335L4.60001 0.0996125L3.40001 0.0996124L3.36667 0.0996103H3.36661C2.97513 0.0995928 2.62866 0.0995773 2.34152 0.123037C2.03574 0.148021 1.71889 0.204031 1.41043 0.361197C0.958843 0.591292 0.59169 0.958446 0.361594 1.41003C0.204428 1.71849 0.148418 2.03534 0.123434 2.34113C0.0999745 2.62826 0.0999898 2.97473 0.100007 3.36621V3.36628L0.100009 3.39961L0.100009 4.59961L0.100007 4.63295V4.63301C0.0999896 5.02449 0.0999741 5.37096 0.123434 5.6581C0.148418 5.96388 0.204428 6.28073 0.361593 6.58919C0.591689 7.04078 0.958843 7.40793 1.41043 7.63803C1.71889 7.79519 2.03574 7.8512 2.34152 7.87619C2.62867 7.89965 2.97515 7.89963 3.36664 7.89961H3.36665H3.36666H3.36667L3.40001 7.89961H4.60001ZM5.7724 6.03422C5.75999 6.04054 5.70639 6.06628 5.51192 6.08217C5.30694 6.09891 5.0349 6.09961 4.60001 6.09961L3.40001 6.09961C2.96512 6.09961 2.69308 6.09891 2.4881 6.08217C2.29363 6.06628 2.24003 6.04054 2.22761 6.03422C2.11472 5.97669 2.02293 5.8849 1.96541 5.77201C1.95908 5.75959 1.93334 5.70599 1.91746 5.51152C1.90071 5.30654 1.90001 5.0345 1.90001 4.59961L1.90001 3.39961C1.90001 2.96472 1.90071 2.69268 1.91746 2.4877C1.93335 2.29323 1.95908 2.23963 1.96541 2.22722C2.02293 2.11432 2.11472 2.02253 2.22761 1.96501C2.24003 1.95868 2.29363 1.93295 2.4881 1.91706C2.69308 1.90031 2.96512 1.89961 3.40001 1.89961L4.60001 1.89961C5.0349 1.89961 5.30694 1.90031 5.51192 1.91706C5.70639 1.93295 5.75999 1.95868 5.7724 1.96501C5.8853 2.02253 5.97709 2.11432 6.03461 2.22722C6.04094 2.23963 6.06667 2.29323 6.08256 2.4877C6.09931 2.69268 6.10001 2.96472 6.10001 3.39961L6.10001 4.59961C6.10001 5.0345 6.09931 5.30654 6.08256 5.51152C6.06667 5.70599 6.04094 5.75959 6.03461 5.77201C5.97709 5.8849 5.8853 5.97669 5.7724 6.03422ZM4.60001 17.8996L4.63334 17.8996H4.63344C5.02491 17.8996 5.37136 17.8996 5.65849 17.8762C5.96428 17.8512 6.28113 17.7952 6.58959 17.638C7.04117 17.4079 7.40833 17.0408 7.63842 16.5892C7.79559 16.2807 7.8516 15.9639 7.87658 15.6581C7.90005 15.371 7.90003 15.0245 7.90001 14.633V14.633V14.633V14.6329L7.90001 14.5996V13.3996L7.90001 13.3663C7.90003 12.9748 7.90005 12.6283 7.87658 12.3411C7.8516 12.0353 7.79559 11.7185 7.63843 11.41C7.40833 10.9584 7.04118 10.5913 6.58959 10.3612C6.28113 10.204 5.96428 10.148 5.6585 10.123C5.37136 10.0996 5.02489 10.0996 4.63342 10.0996H4.63341H4.6334H4.63335L4.60001 10.0996H3.40001L3.36667 10.0996H3.36662H3.36661H3.3666C2.97512 10.0996 2.62866 10.0996 2.34152 10.123C2.03574 10.148 1.71889 10.204 1.41043 10.3612C0.958843 10.5913 0.59169 10.9584 0.361594 11.41C0.204428 11.7185 0.148418 12.0353 0.123434 12.3411C0.0999745 12.6283 0.0999898 12.9747 0.100007 13.3662V13.3663L0.100009 13.3996L0.100009 14.5996L0.100007 14.6329V14.633C0.0999896 15.0245 0.0999741 15.371 0.123434 15.6581C0.148418 15.9639 0.204428 16.2807 0.361593 16.5892C0.591689 17.0408 0.958843 17.4079 1.41043 17.638C1.71889 17.7952 2.03574 17.8512 2.34152 17.8762C2.62865 17.8996 2.97511 17.8996 3.36657 17.8996H3.36667L3.40001 17.8996H4.60001ZM5.7724 16.0342C5.75999 16.0405 5.70639 16.0663 5.51192 16.0822C5.30694 16.0989 5.0349 16.0996 4.60001 16.0996H3.40001C2.96512 16.0996 2.69308 16.0989 2.4881 16.0822C2.29363 16.0663 2.24003 16.0405 2.22761 16.0342C2.11472 15.9767 2.02293 15.8849 1.96541 15.772C1.95908 15.7596 1.93334 15.706 1.91746 15.5115C1.90071 15.3065 1.90001 15.0345 1.90001 14.5996L1.90001 13.3996C1.90001 12.9647 1.90071 12.6927 1.91746 12.4877C1.93335 12.2932 1.95908 12.2396 1.96541 12.2272C2.02293 12.1143 2.11472 12.0225 2.22761 11.965C2.24003 11.9587 2.29363 11.9329 2.4881 11.9171C2.69308 11.9003 2.96512 11.8996 3.40001 11.8996H4.60001C5.0349 11.8996 5.30694 11.9003 5.51192 11.9171C5.70639 11.9329 5.75999 11.9587 5.7724 11.965C5.8853 12.0225 5.97709 12.1143 6.03461 12.2272C6.04094 12.2396 6.06667 12.2932 6.08256 12.4877C6.09931 12.6927 6.10001 12.9647 6.10001 13.3996L6.10001 14.5996C6.10001 15.0345 6.09931 15.3065 6.08256 15.5115C6.06667 15.706 6.04094 15.7596 6.03461 15.772C5.97709 15.8849 5.8853 15.9767 5.7724 16.0342ZM14.6333 7.89961L14.6 7.89961H13.4L13.3667 7.89961H13.3667H13.3666C12.9752 7.89963 12.6287 7.89965 12.3415 7.87619C12.0357 7.8512 11.7189 7.79519 11.4104 7.63803C10.9588 7.40793 10.5917 7.04078 10.3616 6.58919C10.2044 6.28073 10.1484 5.96388 10.1234 5.6581C10.1 5.37094 10.1 5.02445 10.1 4.63295L10.1 4.59961V3.39961L10.1 3.36628C10.1 2.97477 10.1 2.62828 10.1234 2.34113C10.1484 2.03534 10.2044 1.71849 10.3616 1.41003C10.5917 0.958446 10.9588 0.591292 11.4104 0.361197C11.7189 0.204031 12.0357 0.148021 12.3415 0.123037C12.6287 0.0995773 12.9751 0.0995928 13.3666 0.0996103H13.3667L13.4 0.0996124L14.6 0.0996125L14.6333 0.0996103H14.6334C15.0249 0.099593 15.3714 0.0995776 15.6585 0.123038C15.9643 0.148022 16.2811 0.204031 16.5896 0.361197C17.0412 0.591293 17.4083 0.958447 17.6384 1.41004C17.7956 1.71849 17.8516 2.03534 17.8766 2.34113C17.9 2.62828 17.9 2.97477 17.9 3.36628L17.9 3.39961V4.59961L17.9 4.63294C17.9 5.02445 17.9 5.37094 17.8766 5.6581C17.8516 5.96388 17.7956 6.28074 17.6384 6.58919C17.4083 7.04078 17.0412 7.40793 16.5896 7.63803C16.2811 7.79519 15.9643 7.8512 15.6585 7.87619C15.3713 7.89965 15.0248 7.89963 14.6333 7.89961ZM15.5119 6.08217C15.7064 6.06628 15.76 6.04054 15.7724 6.03422C15.8853 5.97669 15.9771 5.8849 16.0346 5.77201C16.0409 5.75959 16.0667 5.70599 16.0826 5.51152C16.0993 5.30654 16.1 5.0345 16.1 4.59961V3.39961C16.1 2.96472 16.0993 2.69268 16.0826 2.4877C16.0667 2.29323 16.0409 2.23963 16.0346 2.22722C15.9771 2.11432 15.8853 2.02253 15.7724 1.96501C15.76 1.95868 15.7064 1.93295 15.5119 1.91706C15.3069 1.90031 15.0349 1.89961 14.6 1.89961L13.4 1.89961C12.9651 1.89961 12.6931 1.90031 12.4881 1.91706C12.2936 1.93295 12.24 1.95868 12.2276 1.96501C12.1147 2.02253 12.0229 2.11432 11.9654 2.22722C11.9591 2.23963 11.9333 2.29323 11.9175 2.4877C11.9007 2.69268 11.9 2.96472 11.9 3.39961V4.59961C11.9 5.0345 11.9007 5.30654 11.9175 5.51152C11.9333 5.70599 11.9591 5.75959 11.9654 5.77201C12.0229 5.8849 12.1147 5.97669 12.2276 6.03422C12.24 6.04054 12.2936 6.06628 12.4881 6.08217C12.6931 6.09891 12.9651 6.09961 13.4 6.09961L14.6 6.09961C15.0349 6.09961 15.3069 6.09891 15.5119 6.08217ZM14.6 17.8996L14.6333 17.8996H14.6334C15.0249 17.8996 15.3714 17.8996 15.6585 17.8762C15.9643 17.8512 16.2811 17.7952 16.5896 17.638C17.0412 17.4079 17.4083 17.0408 17.6384 16.5892C17.7956 16.2807 17.8516 15.9639 17.8766 15.6581C17.9 15.3709 17.9 15.0245 17.9 14.6329L17.9 14.5996V13.3996L17.9 13.3663C17.9 12.9748 17.9 12.6283 17.8766 12.3411C17.8516 12.0353 17.7956 11.7185 17.6384 11.41C17.4083 10.9584 17.0412 10.5913 16.5896 10.3612C16.2811 10.204 15.9643 10.148 15.6585 10.123C15.3714 10.0996 15.0249 10.0996 14.6334 10.0996H14.6333L14.6 10.0996H13.4L13.3667 10.0996H13.3666C12.9751 10.0996 12.6287 10.0996 12.3415 10.123C12.0357 10.148 11.7189 10.204 11.4104 10.3612C10.9588 10.5913 10.5917 10.9584 10.3616 11.41C10.2044 11.7185 10.1484 12.0353 10.1234 12.3411C10.1 12.6283 10.1 12.9748 10.1 13.3663L10.1 13.3996V14.5996L10.1 14.6329C10.1 15.0245 10.1 15.3709 10.1234 15.6581C10.1484 15.9639 10.2044 16.2807 10.3616 16.5892C10.5917 17.0408 10.9588 17.4079 11.4104 17.638C11.7189 17.7952 12.0357 17.8512 12.3415 17.8762C12.6287 17.8996 12.9751 17.8996 13.3666 17.8996H13.3667L13.4 17.8996H14.6ZM15.7724 16.0342C15.76 16.0405 15.7064 16.0663 15.5119 16.0822C15.3069 16.0989 15.0349 16.0996 14.6 16.0996H13.4C12.9651 16.0996 12.6931 16.0989 12.4881 16.0822C12.2936 16.0663 12.24 16.0405 12.2276 16.0342C12.1147 15.9767 12.0229 15.8849 11.9654 15.772C11.9591 15.7596 11.9333 15.706 11.9175 15.5115C11.9007 15.3065 11.9 15.0345 11.9 14.5996V13.3996C11.9 12.9647 11.9007 12.6927 11.9175 12.4877C11.9333 12.2932 11.9591 12.2396 11.9654 12.2272C12.0229 12.1143 12.1147 12.0225 12.2276 11.965C12.24 11.9587 12.2936 11.9329 12.4881 11.9171C12.6931 11.9003 12.9651 11.8996 13.4 11.8996H14.6C15.0349 11.8996 15.3069 11.9003 15.5119 11.9171C15.7064 11.9329 15.76 11.9587 15.7724 11.965C15.8853 12.0225 15.9771 12.1143 16.0346 12.2272C16.0409 12.2396 16.0667 12.2932 16.0826 12.4877C16.0993 12.6927 16.1 12.9647 16.1 13.3996V14.5996C16.1 15.0345 16.0993 15.3065 16.0826 15.5115C16.0667 15.706 16.0409 15.7596 16.0346 15.772C15.9771 15.8849 15.8853 15.9767 15.7724 16.0342Z" fill="currentColor"/>
</svg>
