<svg width="18" height="18" viewBox="0 0 18 18" fill="none" xmlns="http://www.w3.org/2000/svg">
<path fillRule="evenodd" clipRule="evenodd" d="M10.9387 2.08228e-07H6.86131H6.8613C5.84403 -8.18245e-06 5.02581 -1.4931e-05 4.36372 0.0540803C3.68274 0.109718 3.08805 0.227037 2.53894 0.50682C1.66399 0.952631 0.952631 1.66399 0.50682 2.53894C0.227037 3.08805 0.109718 3.68274 0.0540803 4.36372C-1.4931e-05 5.02581 -8.18245e-06 5.84403 2.08228e-07 6.8613V6.86131V10.9387V10.9387C-8.18245e-06 11.956 -1.4931e-05 12.7742 0.0540803 13.4363C0.109718 14.1173 0.227037 14.712 0.50682 15.2611C0.952631 16.136 1.66399 16.8474 2.53894 17.2932C3.08805 17.573 3.68274 17.6903 4.36372 17.7459C5.02581 17.8 5.84403 17.8 6.8613 17.8H10.9387C11.956 17.8 12.7742 17.8 13.4363 17.7459C14.1173 17.6903 14.712 17.573 15.2611 17.2932C16.136 16.8474 16.8474 16.136 17.2932 15.2611C17.573 14.712 17.6903 14.1173 17.7459 13.4363C17.8 12.7742 17.8 11.956 17.8 10.9387V6.8613C17.8 5.84403 17.8 5.02581 17.7459 4.36372C17.6903 3.68274 17.573 3.08805 17.2932 2.53894C16.8474 1.66399 16.136 0.952631 15.2611 0.50682C14.712 0.227037 14.1173 0.109718 13.4363 0.0540803C12.7742 -1.4931e-05 11.956 -8.18245e-06 10.9387 2.08228e-07H10.9387ZM3.35613 2.11063C3.60919 1.98169 3.94063 1.89465 4.5103 1.8481C5.09047 1.8007 5.83505 1.8 6.9 1.8H10.9C11.9649 1.8 12.7095 1.8007 13.2897 1.8481C13.8594 1.89465 14.1908 1.98169 14.4439 2.11063C14.9801 2.38387 15.4161 2.81987 15.6894 3.35613C15.8183 3.60919 15.9054 3.94063 15.9519 4.5103C15.9993 5.09047 16 5.83505 16 6.9V10.9C16 11.9649 15.9993 12.7095 15.9519 13.2897C15.9054 13.8594 15.8183 14.1908 15.6894 14.4439C15.4161 14.9801 14.9801 15.4161 14.4439 15.6894C14.1908 15.8183 13.8594 15.9054 13.2897 15.9519C12.7095 15.9993 11.9649 16 10.9 16H6.9C5.83505 16 5.09047 15.9993 4.5103 15.9519C3.94063 15.9054 3.60919 15.8183 3.35613 15.6894C2.81987 15.4161 2.38387 14.9801 2.11063 14.4439C1.98169 14.1908 1.89465 13.8594 1.8481 13.2897C1.8007 12.7095 1.8 11.9649 1.8 10.9V6.9C1.8 5.83505 1.8007 5.09047 1.8481 4.5103C1.89465 3.94063 1.98169 3.60919 2.11063 3.35613C2.38387 2.81987 2.81987 2.38387 3.35613 2.11063ZM9.8 4.80002C9.8 4.30297 9.39706 3.90002 8.9 3.90002C8.40294 3.90002 8 4.30297 8 4.80002V13C8 13.4971 8.40294 13.9 8.9 13.9C9.39706 13.9 9.8 13.4971 9.8 13V4.80002ZM4.9 6.90002C5.39706 6.90002 5.8 7.30297 5.8 7.80002V13C5.8 13.4971 5.39706 13.9 4.9 13.9C4.40294 13.9 4 13.4971 4 13V7.80002C4 7.30297 4.40294 6.90002 4.9 6.90002ZM13.8 9.80002C13.8 9.30297 13.3971 8.90002 12.9 8.90002C12.4029 8.90002 12 9.30297 12 9.80002V13C12 13.4971 12.4029 13.9 12.9 13.9C13.3971 13.9 13.8 13.4971 13.8 13V9.80002Z" fill="white"/>
</svg>
