<svg width="17" height="14" viewBox="0 0 17 14" fill="none" xmlns="http://www.w3.org/2000/svg">
<path fill-rule="evenodd" clip-rule="evenodd" d="M5.23035 0.416016H5.19893H5.1989C4.52554 0.416008 3.97484 0.416001 3.52728 0.452568C3.06402 0.490418 2.64562 0.571153 2.25488 0.770245C1.64335 1.08183 1.14616 1.57902 0.834576 2.19055C0.635484 2.58129 0.554749 2.99969 0.516899 3.46295C0.480332 3.91051 0.480338 4.46121 0.480347 5.13458V5.1346V5.16602V8.83268V8.8641V8.86412C0.480338 9.53749 0.480332 10.0882 0.516899 10.5358C0.554749 10.999 0.635484 11.4174 0.834576 11.8082C1.14616 12.4197 1.64335 12.9169 2.25488 13.2285C2.64562 13.4275 3.06402 13.5083 3.52728 13.5461C3.97484 13.5827 4.52555 13.5827 5.19893 13.5827H5.23035H12.2303H12.2618C12.9351 13.5827 13.4859 13.5827 13.9334 13.5461C14.3967 13.5083 14.8151 13.4275 15.2058 13.2285C15.8173 12.9169 16.3145 12.4197 16.6261 11.8082C16.8252 11.4174 16.9059 10.999 16.9438 10.5358C16.9804 10.0882 16.9804 9.53748 16.9803 8.8641V8.83268V5.16602V5.1346C16.9804 4.46122 16.9804 3.91051 16.9438 3.46295C16.9059 2.99969 16.8252 2.58129 16.6261 2.19055C16.3145 1.57902 15.8173 1.08183 15.2058 0.770245C14.8151 0.571153 14.3967 0.490418 13.9334 0.452568C13.4859 0.416001 12.9352 0.416008 12.2618 0.416016H12.2618H12.2303H5.23035ZM3.21421 2.00949C3.32718 1.98336 3.46767 1.96244 3.64943 1.94759C4.02868 1.9166 4.51791 1.91602 5.23035 1.91602H12.2303C12.9428 1.91602 13.432 1.9166 13.8113 1.94759C13.993 1.96244 14.1335 1.98336 14.2465 2.00949L10.9056 4.93275C10.4241 5.35407 10.0944 5.64187 9.81989 5.84716C9.55287 6.04683 9.38303 6.13313 9.23608 6.17659C8.90599 6.27421 8.5547 6.27421 8.22462 6.17659C8.07767 6.13313 7.90782 6.04683 7.64081 5.84716C7.36629 5.64187 7.03659 5.35407 6.55509 4.93276L3.21421 2.00949ZM2.10568 3.03267C2.0644 3.16241 2.03239 3.33455 2.01192 3.5851C1.98093 3.96435 1.98035 4.45358 1.98035 5.16602V8.83268C1.98035 9.54512 1.98093 10.0343 2.01192 10.4136C2.04219 10.7841 2.09769 10.9831 2.17109 11.1272C2.33886 11.4565 2.60658 11.7242 2.93586 11.8919C3.0799 11.9653 3.27893 12.0208 3.64943 12.0511C4.02868 12.0821 4.51791 12.0827 5.23035 12.0827H12.2303C12.9428 12.0827 13.432 12.0821 13.8113 12.0511C14.1818 12.0208 14.3808 11.9653 14.5248 11.8919C14.8541 11.7242 15.1218 11.4565 15.2896 11.1272C15.363 10.9831 15.4185 10.7841 15.4488 10.4136C15.4798 10.0343 15.4803 9.54512 15.4803 8.83268V5.16602C15.4803 4.45358 15.4798 3.96435 15.4488 3.5851C15.4283 3.33455 15.3963 3.16241 15.355 3.03267L11.8934 6.06162L11.8715 6.08073C11.4172 6.47825 11.0444 6.80452 10.7182 7.04842C10.3793 7.30184 10.0467 7.5011 9.66146 7.61501C9.05373 7.79473 8.40697 7.79473 7.79924 7.61501C7.41403 7.5011 7.08137 7.30184 6.74249 7.04842C6.41634 6.80453 6.04349 6.47827 5.58922 6.08077L5.56733 6.06162L2.10568 3.03267Z" fill="white"/>
</svg>
