<svg width="45" height="44" viewBox="0 0 45 44" fill="none" xmlns="http://www.w3.org/2000/svg">
<path d="M32.5864 30.2894L28.8764 26.6094C30.3165 24.8138 31.0139 22.5347 30.8252 20.2407C30.6365 17.9467 29.5761 15.8122 27.8619 14.2761C26.1478 12.7399 23.9102 11.9189 21.6094 11.9819C19.3085 12.0448 17.1192 12.987 15.4916 14.6146C13.864 16.2421 12.9219 18.4315 12.8589 20.7323C12.7959 23.0332 13.6169 25.2708 15.1531 26.9849C16.6892 28.6991 18.8237 29.7595 21.1177 29.9482C23.4117 30.1369 25.6908 29.4395 27.4864 27.9994L31.1664 31.6794C31.2594 31.7731 31.37 31.8475 31.4919 31.8983C31.6137 31.9491 31.7444 31.9752 31.8764 31.9752C32.0084 31.9752 32.1391 31.9491 32.261 31.8983C32.3829 31.8475 32.4935 31.7731 32.5864 31.6794C32.7667 31.493 32.8674 31.2438 32.8674 30.9844C32.8674 30.7251 32.7667 30.4759 32.5864 30.2894ZM21.8764 27.9994C20.492 27.9994 19.1386 27.5889 17.9874 26.8197C16.8363 26.0505 15.9391 24.9573 15.4093 23.6782C14.8795 22.3991 14.7408 20.9917 15.0109 19.6338C15.281 18.2759 15.9477 17.0286 16.9267 16.0497C17.9057 15.0707 19.1529 14.404 20.5108 14.1339C21.8687 13.8638 23.2761 14.0024 24.5552 14.5323C25.8343 15.0621 26.9275 15.9593 27.6967 17.1104C28.4659 18.2616 28.8764 19.6149 28.8764 20.9994C28.8764 22.8559 28.1389 24.6364 26.8262 25.9492C25.5134 27.2619 23.7329 27.9994 21.8764 27.9994Z" fill="white"/>
</svg>
