<svg width="17" height="17" viewBox="0 0 17 17" fill="none" xmlns="http://www.w3.org/2000/svg">
<path d="M9.04029 0.842523C10.0468 0.873855 10.7014 1.42764 11.0465 2.47161L11.1011 2.65014L11.1434 2.80997C11.1588 2.87153 11.178 2.93707 11.2004 3.00514L11.2482 3.13794L11.2765 3.15211L11.334 3.13311L11.4454 3.09045L11.5753 3.03393C12.7535 2.48543 13.6598 2.58723 14.3978 3.39825L14.5021 3.51894L15.1856 4.36603C15.7947 5.16798 15.7762 6.02516 15.1821 6.95034L15.0778 7.10517L14.9802 7.23862C14.9412 7.29041 14.9015 7.34782 14.8619 7.40952L14.8029 7.5051L14.7749 7.55294L14.7782 7.56961L14.8546 7.62L14.96 7.68368L15.0878 7.75313C16.2454 8.34388 16.7232 9.12074 16.5389 10.1999L16.508 10.3562L16.3046 11.238C16.1729 11.8087 16.0694 12.0789 15.6623 12.4496C15.2668 12.8097 14.8156 12.9584 14.2193 13.0077L14.036 13.0196L13.8708 13.0249C13.8066 13.026 13.7377 13.03 13.6656 13.0367L13.5149 13.0546L13.5258 13.1733L13.537 13.2531L13.5638 13.402C13.8332 14.6734 13.5302 15.5336 12.5739 16.0703L12.4329 16.1448L11.4537 16.6202C10.5353 17.0333 9.70427 16.8225 8.93645 16.0354L8.80906 15.8989L8.70098 15.7738C8.65885 15.7237 8.61132 15.6715 8.55951 15.6186L8.47875 15.5387L8.43737 15.5004L8.36099 15.5731L8.27348 15.6631L8.17543 15.7738C7.38169 16.7185 6.54395 17.0577 5.52857 16.6627L5.38229 16.6013L4.50611 16.1755L4.24584 16.0423C3.84912 15.8256 3.6265 15.6181 3.40894 15.1587C3.17991 14.6751 3.16452 14.2001 3.27555 13.5894L3.31257 13.402C3.32582 13.3395 3.33741 13.2716 3.34711 13.2L3.36237 13.0571L3.35904 13.0538L3.27264 13.0422L3.15056 13.0313L3.00565 13.0249C1.70624 13.0014 0.936275 12.5126 0.628471 11.4601L0.587635 11.3059L0.34465 10.2449C0.148755 9.25714 0.54111 8.4948 1.48069 7.9237L1.64235 7.83029L1.78857 7.75313C1.84588 7.72388 1.90628 7.68996 1.9684 7.65217L2.09737 7.56794L2.1007 7.55211L2.04858 7.4622L1.98124 7.35789L1.89625 7.23862C1.11478 6.2002 1.02591 5.29253 1.66577 4.40201L1.76214 4.2749L2.44861 3.43021C3.1064 2.6677 3.94868 2.50754 4.97718 2.89633L5.15032 2.96621L5.30114 3.03393C5.35789 3.06035 5.41998 3.08637 5.48605 3.11144L5.59904 3.15127L5.62904 3.13711L5.65706 3.06324L5.69463 2.94828L5.73299 2.80997C6.03226 1.61291 6.63654 0.940865 7.72412 0.850711L7.88279 0.841797L9.04029 0.842523ZM8.99362 2.3418H7.88279L7.76662 2.35031C7.52823 2.38135 7.37252 2.51002 7.22271 3.04337L7.1882 3.17377L7.14115 3.34524C7.05368 3.639 6.92146 3.96957 6.7512 4.29052C6.41409 4.41132 6.09373 4.5673 5.79506 4.75562C5.44363 4.68437 5.10853 4.57987 4.82889 4.46429L4.53722 4.33519C4.3298 4.24634 4.17443 4.20101 4.05132 4.18998L3.98116 4.18741C3.83315 4.1905 3.73542 4.25129 3.64101 4.34791L3.58439 4.41001L2.92678 5.2202L2.84785 5.32468C2.69502 5.54494 2.67216 5.74136 3.01024 6.22084L3.20041 6.48403C3.37699 6.74213 3.55406 7.06026 3.69864 7.40188C3.59078 7.72211 3.51447 8.05684 3.47358 8.40305C3.19536 8.6439 2.89888 8.85027 2.62887 9.00367L2.34365 9.15624C1.8296 9.43899 1.76404 9.62555 1.80485 9.89053L1.816 9.95315L2.04957 10.9702L2.08331 11.0967C2.16279 11.3527 2.30349 11.4917 2.88947 11.5204L3.21226 11.5325C3.52138 11.552 3.87723 11.6074 4.2315 11.7024C4.41881 11.9933 4.63546 12.2634 4.87829 12.5086C4.89213 12.9475 4.85155 13.3752 4.77998 13.713C4.6124 14.5039 4.76841 14.6313 5.09956 14.7958L6.03797 15.2522C6.1374 15.2969 6.22626 15.3271 6.31861 15.3259L6.37455 15.3212C6.52543 15.2982 6.69244 15.1864 6.93314 14.9173L7.14797 14.6716C7.36189 14.4393 7.63514 14.1929 7.9384 13.9741L8.18669 13.9926L8.4382 13.9988L8.68974 13.9925L8.93818 13.9734C9.24129 14.1928 9.51452 14.4393 9.72844 14.6716L9.94327 14.9173C10.2141 15.2201 10.3916 15.3237 10.5578 15.3259L10.6129 15.323C10.6617 15.3173 10.7103 15.3036 10.7609 15.2845L10.8384 15.2522L11.7768 14.7958L11.8925 14.7345C12.1419 14.5891 12.2431 14.405 12.0964 13.713C12.0249 13.3752 11.9843 12.9475 11.9991 12.5087C12.241 12.2634 12.4576 11.9933 12.6451 11.701C12.9997 11.6071 13.3553 11.5519 13.6643 11.5325L13.9869 11.5204C14.6631 11.4872 14.7464 11.3074 14.8268 10.9702L15.0464 10.019C15.1219 9.68068 15.1259 9.48249 14.5328 9.15624L14.2475 9.00366C13.9775 8.85022 13.681 8.64375 13.403 8.40239C13.3619 8.05685 13.2856 7.72211 13.1773 7.40118C13.3223 7.06015 13.4994 6.74212 13.676 6.48402L13.8662 6.22084C14.2042 5.74136 14.1814 5.54494 14.0286 5.32468L13.9911 5.27328L13.3353 4.46159C13.2179 4.31876 13.1194 4.21651 12.9586 4.19262L12.8952 4.18741C12.762 4.18462 12.5881 4.22857 12.3392 4.33519L12.0476 4.46424C11.7682 4.57972 11.4334 4.68401 11.0823 4.75431C10.7825 4.56715 10.4614 4.41087 10.1236 4.29128C9.96143 3.98256 9.8333 3.66546 9.74596 3.38067L9.6514 3.0352C9.49153 2.47071 9.3245 2.36486 9.05714 2.34502L8.99362 2.3418ZM8.4382 5.83211C10.1871 5.83211 11.6049 7.24987 11.6049 8.99877C11.6049 10.7477 10.1871 12.1654 8.4382 12.1654C6.6893 12.1654 5.27154 10.7477 5.27154 8.99877C5.27154 7.24987 6.6893 5.83211 8.4382 5.83211ZM8.4382 7.33211C7.51773 7.33211 6.77154 8.0783 6.77154 8.99877C6.77154 9.91925 7.51773 10.6654 8.4382 10.6654C9.35868 10.6654 10.1049 9.91925 10.1049 8.99877C10.1049 8.0783 9.35868 7.33211 8.4382 7.33211Z" fill="white"/>
</svg>
